<?xml version="1.0" encoding="UTF-8" standalone="no"?>
<!DOCTYPE svg PUBLIC "-//W3C//DTD SVG 1.1//EN" "http://www.w3.org/Graphics/SVG/1.1/DTD/svg11.dtd">
<svg width="100%" height="100%" viewBox="0 0 2288 105" version="1.1" xmlns="http://www.w3.org/2000/svg" xmlns:xlink="http://www.w3.org/1999/xlink" xml:space="preserve" xmlns:serif="http://www.serif.com/" style="fill-rule:evenodd;clip-rule:evenodd;stroke-linejoin:round;stroke-miterlimit:2;">
    <g transform="matrix(4.16667,0,0,4.16667,0,0)">
        <path d="M9.433,24.057C25.876,24.212 42.358,24.202 58.856,24.009C68.835,23.891 78.791,23.725 88.787,23.443C103.165,23.046 117.511,22.42 131.881,21.793C144.274,21.254 156.669,20.754 169.063,20.235C178.987,19.821 188.934,19.396 198.858,18.963C210.308,18.467 221.738,18.01 233.187,17.466C259.497,16.22 285.785,14.984 312.096,13.777C322.558,13.296 332.999,12.874 343.464,12.46C351.076,12.156 358.665,11.852 366.278,11.557C369.713,11.418 373.151,11.336 376.588,11.235C384.966,10.99 393.368,10.754 401.747,10.51C405.386,10.402 409.047,10.283 412.688,10.233C424.802,10.069 436.937,9.856 449.076,9.748C462.339,9.63 475.62,9.415 488.877,9.125C500.426,8.875 511.996,8.586 523.539,8.144C532.027,7.819 540.558,7.424 548.987,6.679C543.405,6.519 537.822,6.33 532.241,6.208C532.398,6.203 532.556,6.216 532.736,6.22C520.447,5.901 508.097,5.737 495.772,5.659C486.168,5.592 476.565,5.562 466.964,5.572C470.533,5.38 474.101,5.188 477.669,4.986C482.719,4.704 487.768,4.403 492.84,4.12C499.281,3.77 505.742,3.353 512.183,2.993C523.876,2.335 535.542,1.572 547.181,0.686C535.35,0.59 523.445,0.958 511.584,1.277C499.003,1.611 486.404,2.042 473.806,2.52C461.836,2.968 449.847,3.483 437.881,4.045C427.173,4.553 416.465,5.052 405.732,5.514C397.066,5.893 388.399,6.263 379.71,6.644C375.49,6.83 371.247,7.036 367.025,7.193C352.832,7.718 338.662,8.242 324.468,8.757C320.875,8.882 317.283,9.037 313.689,9.153C307.444,9.342 301.177,9.532 294.933,9.722C286.577,9.975 278.221,10.229 269.888,10.492C266.855,10.578 263.823,10.684 260.79,10.752C245.895,11.119 230.999,11.486 216.104,11.853C204.264,12.142 192.443,12.334 180.623,12.575C158.445,13.014 136.243,13.425 114.044,13.922C102.315,14.179 90.566,14.484 78.841,14.855C75.809,14.951 72.799,15.047 69.767,15.153C64.399,15.341 59.055,15.547 53.688,15.763C49.579,15.926 45.494,16.136 41.384,16.27C27.571,16.743 13.809,17.368 0.021,17.878C3.645,18.011 7.27,18.134 10.915,18.208C14.606,18.29 18.318,18.352 22.008,18.425C28.849,18.551 35.687,18.638 42.526,18.716C43.786,18.729 45.067,18.713 46.326,18.717C49.969,18.715 53.611,18.703 57.253,18.681C65.279,18.64 73.304,18.571 81.35,18.463C85.868,18.401 90.407,18.309 94.923,18.199C72.768,19.31 50.647,20.764 28.626,22.494C22.213,22.996 15.799,23.498 9.41,24.039L9.433,24.057Z" style="fill:rgb(79,110,247);fill-rule:nonzero;"/>
    </g>
</svg>
